<svg width="960" height="600" version="1.1" xmlns="http://www.w3.org/2000/svg"><g></g><g transform="translate(480,300)scale(1,1)"><text text-anchor="middle" transform="translate(68,50)rotate(2.166666621401096)scale(1.0000000214517875,1.0000000214517875)" style="font-size: 40px; font-family: Impact; fill: rgb(82, 84, 163);"></text><text text-anchor="middle" transform="translate(-189,-39)rotate(-6.999999910278042)scale(0.9999999892352118,0.9999999892352118)" style="font-size: 100px; font-family: Impact; fill: rgb(107, 110, 207);">0</text><text text-anchor="middle" transform="translate(-14,-157)rotate(-6.999999910278042)scale(0.9999999892352118,0.9999999892352118)" style="font-size: 93px; font-family: Impact; fill: rgb(156, 158, 222);">1</text><text text-anchor="middle" transform="translate(144,86)rotate(3.9999997130910883)skewX(-7.951386490294831e-16)scale(1.0000000268335543,1.0000000268335543)" style="font-size: 84px; font-family: Impact; fill: rgb(99, 121, 57);">5</text><text text-anchor="middle" transform="translate(112,19)rotate(2.166666621401096)skewX(0)scale(1.0000000214517875,1.0000000214517875)" style="font-size: 83px; font-family: Impact; fill: rgb(140, 162, 82);">price</text><text text-anchor="middle" transform="translate(-227,73)rotate(0.3333333361047359)skewX(0)scale(0.9999999954233435,0.9999999954233435)" style="font-size: 82px; font-family: Impact; fill: rgb(181, 207, 107);">free</text><text text-anchor="middle" transform="translate(-11,-54)rotate(3.9999997130910883)skewX(-7.951386490294831e-16)scale(1.0000000268335543,1.0000000268335543)" style="font-size: 82px; font-family: Impact; fill: rgb(206, 219, 156);">genuine</text><text text-anchor="middle" transform="translate(-56,102)rotate(-3.333333113878968)scale(1.0000000233081545,1.0000000233081545)" style="font-size: 75px; font-family: Impact; fill: rgb(140, 109, 49);">illegal</text><text text-anchor="middle" transform="translate(208,123)rotate(-1.4999999762315532)skewX(-1.98784666018391e-16)scale(1.0000000079134816,1.0000000079134816)" style="font-size: 64px; font-family: Impact; fill: rgb(189, 158, 57);">opensource</text><text text-anchor="middle" transform="translate(172,-80)rotate(-1.4999999762315532)skewX(-1.98784666018391e-16)scale(1.0000000079134816,1.0000000079134816)" style="font-size: 63px; font-family: Impact; fill: rgb(231, 186, 82);">3</text><text text-anchor="middle" transform="translate(200,-28)rotate(3.9999997130910883)skewX(-7.951386490294831e-16)scale(1.0000000268335543,1.0000000268335543)" style="font-size: 63px; font-family: Impact; fill: rgb(231, 203, 148);">4</text><text text-anchor="middle" transform="translate(-181,155)rotate(0.3333333361047359)scale(0.9999999954233435,0.9999999954233435)" style="font-size: 63px; font-family: Impact; fill: rgb(132, 60, 57);">engineering</text><text text-anchor="middle" transform="translate(7,207)rotate(-5.166666555295327)skewX(-7.951386926973114e-16)scale(0.9999999719150476,0.9999999719150477)" style="font-size: 63px; font-family: Impact; fill: rgb(173, 73, 74);">electrical</text><text text-anchor="middle" transform="translate(-68,37)rotate(-6.999999910278043)scale(0.9999999892352118,0.9999999892352118)" style="font-size: 61px; font-family: Impact; fill: rgb(214, 97, 107);">firefox</text><text text-anchor="middle" transform="translate(232,170)rotate(2.166666621401096)scale(1.0000000214517875,1.0000000214517875)" style="font-size: 57px; font-family: Impact; fill: rgb(231, 150, 156);">security</text><text text-anchor="middle" transform="translate(-338,117)rotate(-5.166666555295327)skewX(-7.951386926973114e-16)scale(0.9999999719150476,0.9999999719150477)" style="font-size: 54px; font-family: Impact; fill: rgb(123, 65, 115);">habit</text><text text-anchor="middle" transform="translate(235,-125)rotate(-3.333333113878968)skewX(0)scale(1.0000000233081545,1.0000000233081545)" style="font-size: 53px; font-family: Impact; fill: rgb(165, 81, 148);">class</text><text text-anchor="middle" transform="translate(177,236)rotate(0.33333333610473587)scale(0.9999999954233435,0.9999999954233435)" style="font-size: 53px; font-family: Impact; fill: rgb(206, 109, 189);">userAmount</text><text text-anchor="middle" transform="translate(271,82)rotate(-3.333333113878968)skewX(0)scale(1.0000000233081545,1.0000000233081545)" style="font-size: 52px; font-family: Impact; fill: rgb(222, 158, 214);">social</text><text text-anchor="middle" transform="translate(294,35)rotate(-3.333333113878968)skewX(0)scale(1.0000000233081545,1.0000000233081545)" style="font-size: 51px; font-family: Impact; fill: rgb(57, 59, 121);">med</text><text text-anchor="middle" transform="translate(149,-163)rotate(-1.4999999762315532)skewX(-1.98784666018391e-16)scale(1.0000000079134816,1.0000000079134816)" style="font-size: 51px; font-family: Impact; fill: rgb(82, 84, 163);">openoffice</text><text text-anchor="middle" transform="translate(-203,-6)rotate(2.166666621401096)skewX(0)scale(1.0000000214517875,1.0000000214517875)" style="font-size: 51px; font-family: Impact; fill: rgb(107, 110, 207);">science</text><text text-anchor="middle" transform="translate(35,-120)rotate(2.166666621401096)scale(1.0000000214517875,1.0000000214517875)" style="font-size: 48px; font-family: Impact; fill: rgb(156, 158, 222);">format</text><text text-anchor="middle" transform="translate(217,-207)rotate(3.999999713091089)skewX(-7.951386490294831e-16)scale(1.0000000268335543,1.0000000268335543)" style="font-size: 47px; font-family: Impact; fill: rgb(99, 121, 57);">libreoffice</text><text text-anchor="middle" transform="translate(-48,-17)rotate(-1.4999999762315532)skewX(-1.98784666018391e-16)scale(1.0000000079134816,1.0000000079134816)" style="font-size: 47px; font-family: Impact; fill: rgb(140, 162, 82);">share</text><text text-anchor="middle" transform="translate(-232,-123)rotate(3.9999997130910887)skewX(-7.951386490294831e-16)scale(1.0000000268335543,1.0000000268335543)" style="font-size: 47px; font-family: Impact; fill: rgb(181, 207, 107);">priceopensource</text><text text-anchor="middle" transform="translate(-129,-150)rotate(3.9999997130910887)skewX(-7.951386490294831e-16)scale(1.0000000268335543,1.0000000268335543)" style="font-size: 46px; font-family: Impact; fill: rgb(206, 219, 156);">function</text><text text-anchor="middle" transform="translate(312,-97)rotate(-5.166666555295327)skewX(-7.951386926973114e-16)scale(0.9999999719150476,0.9999999719150477)" style="font-size: 46px; font-family: Impact; fill: rgb(140, 109, 49);">genuinefree</text><text text-anchor="middle" transform="translate(84,52)rotate(-3.333333113878968)scale(1.0000000233081545,1.0000000233081545)" style="font-size: 45px; font-family: Impact; fill: rgb(189, 158, 57);">2</text><text text-anchor="middle" transform="translate(-313,-40)rotate(-6.999999910278042)scale(0.9999999892352118,0.9999999892352118)" style="font-size: 44px; font-family: Impact; fill: rgb(231, 186, 82);">pricefree</text><text text-anchor="middle" transform="translate(-115,258)rotate(0.3333333361047359)skewX(0)scale(0.9999999954233435,0.9999999954233435)" style="font-size: 43px; font-family: Impact; fill: rgb(231, 203, 148);">management</text><text text-anchor="middle" transform="translate(-125,-188)rotate(0.3333333361047359)scale(0.9999999954233435,0.9999999954233435)" style="font-size: 42px; font-family: Impact; fill: rgb(132, 60, 57);">scratch</text><text text-anchor="middle" transform="translate(91,85)rotate(-3.333333113878968)scale(1.0000000233081545,1.0000000233081545)" style="font-size: 42px; font-family: Impact; fill: rgb(173, 73, 74);">law</text><text text-anchor="middle" transform="translate(318,-12)rotate(0.3333333361047357)scale(0.9999999954233435,0.9999999954233435)" style="font-size: 40px; font-family: Impact; fill: rgb(214, 97, 107);">pricelaw</text><text text-anchor="middle" transform="translate(-366,13)rotate(0.3333333361047357)skewX(0)scale(0.9999999954233435,0.9999999954233435)" style="font-size: 39px; font-family: Impact; fill: rgb(231, 150, 156);">diversity</text><text text-anchor="middle" transform="translate(91,-251)rotate(-5.166666555295327)skewX(-7.951386926973114e-16)scale(0.9999999719150476,0.9999999719150477)" style="font-size: 39px; font-family: Impact; fill: rgb(123, 65, 115);">pricedifficulty</text><text text-anchor="middle" transform="translate(336,-50)rotate(2.166666621401096)skewX(0)scale(1.0000000214517875,1.0000000214517875)" style="font-size: 37px; font-family: Impact; fill: rgb(165, 81, 148);">pricefunction</text><text text-anchor="middle" transform="translate(-207,21)rotate(-6.999999910278043)scale(0.9999999892352118,0.9999999892352118)" style="font-size: 35px; font-family: Impact; fill: rgb(206, 109, 189);">plan</text><text text-anchor="middle" transform="translate(392,78)rotate(2.166666621401096)scale(1.0000000214517875,1.0000000214517875)" style="font-size: 35px; font-family: Impact; fill: rgb(222, 158, 214);">design</text><text text-anchor="middle" transform="translate(338,-143)rotate(0.3333333361047357)scale(0.9999999954233435,0.9999999954233435)" style="font-size: 35px; font-family: Impact; fill: rgb(57, 59, 121);">liberal</text><text text-anchor="middle" transform="translate(321,-259)rotate(-6.999999910278042)skewX(0)scale(0.9999999892352118,0.9999999892352118)" style="font-size: 35px; font-family: Impact; fill: rgb(82, 84, 163);">genuineillegal</text><text text-anchor="middle" transform="translate(-299,-87)rotate(-5.166666555295327)skewX(-7.951386926973114e-16)scale(0.9999999719150476,0.9999999719150477)" style="font-size: 33px; font-family: Impact; fill: rgb(107, 110, 207);">priceshare</text><text text-anchor="middle" transform="translate(40,152)rotate(0.3333333361047357)skewX(0)scale(0.9999999954233435,0.9999999954233435)" style="font-size: 33px; font-family: Impact; fill: rgb(156, 158, 222);">linux</text><text text-anchor="middle" transform="translate(-110,-228)rotate(-5.166666555295327)skewX(-7.951386926973114e-16)scale(0.9999999719150476,0.9999999719150477)" style="font-size: 33px; font-family: Impact; fill: rgb(99, 121, 57);">illegalfree</text><text text-anchor="middle" transform="translate(-213,192)rotate(-6.999999910278043)scale(0.9999999892352118,0.9999999892352118)" style="font-size: 33px; font-family: Impact; fill: rgb(140, 162, 82);">freeopensource</text><text text-anchor="middle" transform="translate(-187,109)rotate(3.9999997130910887)skewX(-7.951386490294831e-16)scale(1.0000000268335543,1.0000000268335543)" style="font-size: 31px; font-family: Impact; fill: rgb(181, 207, 107);">skills</text><text text-anchor="middle" transform="translate(-281,-170)rotate(-1.4999999762315532)skewX(-1.98784666018391e-16)scale(1.0000000079134816,1.0000000079134816)" style="font-size: 31px; font-family: Impact; fill: rgb(206, 219, 156);">difficulty</text><text text-anchor="middle" transform="translate(-319,-200)rotate(0.3333333361047357)scale(0.9999999954233435,0.9999999954233435)" style="font-size: 31px; font-family: Impact; fill: rgb(140, 109, 49);">linuxlibreoffice</text><text text-anchor="middle" transform="translate(5,-102)rotate(3.9999997130910883)skewX(-7.951386490294831e-16)scale(1.0000000268335543,1.0000000268335543)" style="font-size: 28px; font-family: Impact; fill: rgb(189, 158, 57);">web</text><text text-anchor="middle" transform="translate(-21,54)rotate(-1.4999999762315532)skewX(-1.98784666018391e-16)scale(1.0000000079134816,1.0000000079134816)" style="font-size: 24px; font-family: Impact; fill: rgb(231, 186, 82);">friend</text><text text-anchor="middle" transform="translate(-277,-236)rotate(-1.4999999762315532)skewX(-1.9878466601839103e-16)scale(1.0000000079134816,1.0000000079134816)" style="font-size: 24px; font-family: Impact; fill: rgb(231, 203, 148);">libreofficefirefox</text><text text-anchor="middle" transform="translate(47,-200)rotate(-5.166666555295327)skewX(-7.951386926973114e-16)scale(0.9999999719150476,0.9999999719150477)" style="font-size: 24px; font-family: Impact; fill: rgb(132, 60, 57);">freeillegal</text><text text-anchor="middle" transform="translate(-251,-266)rotate(-3.333333113878968)scale(1.0000000233081545,1.0000000233081545)" style="font-size: 24px; font-family: Impact; fill: rgb(173, 73, 74);">opensourcefree</text><text text-anchor="middle" transform="translate(198,195)rotate(3.9999997130910887)skewX(-7.951386490294831e-16)scale(1.0000000268335543,1.0000000268335543)" style="font-size: 24px; font-family: Impact; fill: rgb(214, 97, 107);">formathabit</text><text text-anchor="middle" transform="translate(161,258)rotate(2.166666621401096)scale(1.0000000214517875,1.0000000214517875)" style="font-size: 24px; font-family: Impact; fill: rgb(231, 150, 156);">webfriend</text><text text-anchor="middle" transform="translate(-175,210)rotate(-3.333333113878968)scale(1.0000000233081545,1.0000000233081545)" style="font-size: 19px; font-family: Impact; fill: rgb(123, 65, 115);">inkscape</text><text text-anchor="middle" transform="translate(-22,228)rotate(-5.166666555295327)skewX(-7.951386926973114e-16)scale(0.9999999719150476,0.9999999719150477)" style="font-size: 19px; font-family: Impact; fill: rgb(165, 81, 148);">somebody</text><text text-anchor="middle" transform="translate(67,-99)rotate(-3.333333113878968)scale(1.0000000233081545,1.0000000233081545)" style="font-size: 19px; font-family: Impact; fill: rgb(206, 109, 189);">news</text><text text-anchor="middle" transform="translate(282,189)rotate(0.3333333361047357)scale(0.9999999954233435,0.9999999954233435)" style="font-size: 19px; font-family: Impact; fill: rgb(222, 158, 214);">bio</text><text text-anchor="middle" transform="translate(380,29)rotate(-6.999999910278043)skewX(0)scale(0.9999999892352118,0.9999999892352118)" style="font-size: 19px; font-family: Impact; fill: rgb(57, 59, 121);">speech</text><text text-anchor="middle" transform="translate(-339,48)rotate(3.999999713091089)skewX(-7.951386490294831e-16)scale(1.0000000268335543,1.0000000268335543)" style="font-size: 19px; font-family: Impact; fill: rgb(82, 84, 163);">studenet</text><text text-anchor="middle" transform="translate(379,12)rotate(-6.999999910278043)scale(0.9999999892352118,0.9999999892352118)" style="font-size: 19px; font-family: Impact; fill: rgb(107, 110, 207);">teacher</text><text text-anchor="middle" transform="translate(-85,-276)rotate(0.3333333361047359)skewX(0)scale(0.9999999954233435,0.9999999954233435)" style="font-size: 19px; font-family: Impact; fill: rgb(156, 158, 222);">openofficelinux</text><text text-anchor="middle" transform="translate(354,-188)rotate(-6.999999910278043)scale(0.9999999892352118,0.9999999892352118)" style="font-size: 19px; font-family: Impact; fill: rgb(99, 121, 57);">openofficegimp</text><text text-anchor="middle" transform="translate(-367,-275)rotate(-6.999999910278042)scale(0.9999999892352118,0.9999999892352118)" style="font-size: 19px; font-family: Impact; fill: rgb(140, 162, 82);">openofficelibreoffice</text><text text-anchor="middle" transform="translate(49,-225)rotate(-1.4999999762315537)skewX(-1.9878466601839103e-16)scale(1.0000000079134816,1.0000000079134816)" style="font-size: 19px; font-family: Impact; fill: rgb(181, 207, 107);">linuxfirefox</text><text text-anchor="middle" transform="translate(-350,68)rotate(-3.333333113878968)scale(1.0000000233081545,1.0000000233081545)" style="font-size: 19px; font-family: Impact; fill: rgb(206, 219, 156);">megazine</text><text text-anchor="middle" transform="translate(-323,177)rotate(3.9999997130910883)skewX(-7.951386490294831e-16)scale(1.0000000268335543,1.0000000268335543)" style="font-size: 19px; font-family: Impact; fill: rgb(140, 109, 49);">webclass</text><text text-anchor="middle" transform="translate(-312,233)rotate(-5.166666555295327)skewX(-7.951386926973114e-16)scale(0.9999999719150476,0.9999999719150477)" style="font-size: 19px; font-family: Impact; fill: rgb(189, 158, 57);">webfriendmagazine</text><text text-anchor="middle" transform="translate(399,-81)rotate(0.3333333361047359)skewX(0)scale(0.9999999954233435,0.9999999954233435)" style="font-size: 19px; font-family: Impact; fill: rgb(231, 186, 82);">freeshare</text><text text-anchor="middle" transform="translate(5,118)rotate(2.166666621401096)scale(1.0000000214517875,1.0000000214517875)" style="font-size: 19px; font-family: Impact; fill: rgb(231, 203, 148);">7zip</text><text text-anchor="middle" transform="translate(0,135)rotate(-5.166666555295327)skewX(-7.951386926973114e-16)scale(0.9999999719150476,0.9999999719150477)" style="font-size: 10px; font-family: Impact; fill: rgb(132, 60, 57);">6</text><text text-anchor="middle" transform="translate(92,147)rotate(3.9999997130910883)skewX(-7.951386490294831e-16)scale(1.0000000268335543,1.0000000268335543)" style="font-size: 10px; font-family: Impact; fill: rgb(173, 73, 74);">7</text><text text-anchor="middle" transform="translate(30,117)rotate(-3.333333113878968)scale(1.0000000233081545,1.0000000233081545)" style="font-size: 10px; font-family: Impact; fill: rgb(214, 97, 107);">8</text><text text-anchor="middle" transform="translate(-65,31)rotate(0.3333333361047357)scale(0.9999999954233435,0.9999999954233435)" style="font-size: 10px; font-family: Impact; fill: rgb(231, 150, 156);">9</text></g></svg>